<?xml version="1.0" encoding="UTF-8"?>
<!DOCTYPE svg PUBLIC "-//W3C//DTD SVG 1.1//EN" "http://www.w3.org/Graphics/SVG/1.1/DTD/svg11.dtd">
<svg xmlns="http://www.w3.org/2000/svg" version="1.1" width="450px" height="450px" style="shape-rendering:geometricPrecision; text-rendering:geometricPrecision; image-rendering:optimizeQuality; fill-rule:evenodd; clip-rule:evenodd" xmlns:xlink="http://www.w3.org/1999/xlink">
<g><path style="opacity:1" fill="#fefefe" d="M -0.5,-0.5 C 149.5,-0.5 299.5,-0.5 449.5,-0.5C 449.5,149.5 449.5,299.5 449.5,449.5C 299.5,449.5 149.5,449.5 -0.5,449.5C -0.5,299.5 -0.5,149.5 -0.5,-0.5 Z"/></g>
<g><path style="opacity:1" fill="#023221" d="M 309.5,128.5 C 309.167,150.51 309.5,172.51 310.5,194.5C 311.107,194.376 311.44,194.043 311.5,193.5C 327.779,180.09 345.446,177.923 364.5,187C 376.412,194.925 384.579,205.758 389,219.5C 395.49,242.695 394.824,265.695 387,288.5C 375.257,314.046 355.257,326.713 327,326.5C 300.923,326.567 283.089,314.567 273.5,290.5C 273.405,288.214 272.738,286.214 271.5,284.5C 270.314,277.863 269.314,271.197 268.5,264.5C 268.5,258.833 268.5,253.167 268.5,247.5C 282.5,247.5 296.5,247.5 310.5,247.5C 309.531,264.417 311.031,281.084 315,297.5C 316.446,302.895 319.279,307.395 323.5,311C 330.758,313.972 336.925,312.472 342,306.5C 348.504,290.14 351.338,273.14 350.5,255.5C 350.706,241.221 348.872,227.221 345,213.5C 342.229,205.227 336.729,199.894 328.5,197.5C 324.807,197.753 321.474,198.92 318.5,201C 301.837,201.5 285.17,201.667 268.5,201.5C 268.831,177.661 268.498,153.994 267.5,130.5C 264.224,124.245 259.39,122.912 253,126.5C 251.566,126.07 250.399,125.236 249.5,124C 259.445,115.856 270.778,111.356 283.5,110.5C 293.659,109.076 301.825,112.409 308,120.5C 308.822,123.117 309.322,125.784 309.5,128.5 Z"/></g>
<g><path style="opacity:1" fill="#c8d2cf" d="M 135.5,118.5 C 141.157,117.834 146.99,117.501 153,117.5C 161.066,117.279 168.899,117.945 176.5,119.5C 162.851,118.662 149.184,118.329 135.5,118.5 Z"/></g>
<g><path style="opacity:1" fill="#033221" d="M 135.5,118.5 C 149.184,118.329 162.851,118.662 176.5,119.5C 197.865,121.122 217.532,127.622 235.5,139C 248.813,148.788 257.813,161.621 262.5,177.5C 262.41,180.152 263.076,182.485 264.5,184.5C 265.327,188.807 265.993,193.14 266.5,197.5C 266.5,198.833 266.5,200.167 266.5,201.5C 250.833,201.5 235.167,201.5 219.5,201.5C 219.5,199.833 219.5,198.167 219.5,196.5C 219.556,191.269 218.889,186.269 217.5,181.5C 215.102,164.652 208.102,150.152 196.5,138C 187.186,130.755 176.852,128.755 165.5,132C 163.291,133.873 161.458,136.04 160,138.5C 158.35,193.122 158.017,247.788 159,302.5C 162.19,311.844 168.69,315.011 178.5,312C 193.416,309.751 203.582,301.585 209,287.5C 214.372,274.68 217.538,261.347 218.5,247.5C 233.871,246.85 248.871,247.516 263.5,249.5C 252.216,290.95 225.549,316.117 183.5,325C 166.578,327.845 149.578,328.178 132.5,326C 122.297,323.797 116.131,317.631 114,307.5C 113.667,251.833 113.333,196.167 113,140.5C 111.833,138 110,136.167 107.5,135C 87.7681,132.451 72.9348,139.618 63,156.5C 62.3333,160.833 62.3333,165.167 63,169.5C 64.6974,175.543 68.5308,177.71 74.5,176C 78.7636,173.539 83.0969,171.372 87.5,169.5C 97.1855,172.191 100.686,178.524 98,188.5C 95.8597,195.974 91.0264,200.807 83.5,203C 64.1922,207.768 52.0255,200.601 47,181.5C 44.2835,168.509 46.9502,156.843 55,146.5C 67.8254,132.714 83.6587,124.547 102.5,122C 113.467,120.447 124.467,119.281 135.5,118.5 Z"/></g>
<g><path style="opacity:1" fill="#4b6e61" d="M 309.5,128.5 C 310.167,150.167 310.833,171.833 311.5,193.5C 311.44,194.043 311.107,194.376 310.5,194.5C 309.5,172.51 309.167,150.51 309.5,128.5 Z"/></g>
<g><path style="opacity:1" fill="#afbeb9" d="M 267.5,130.5 C 268.498,153.994 268.831,177.661 268.5,201.5C 252.069,202.824 235.735,202.824 219.5,201.5C 235.167,201.5 250.833,201.5 266.5,201.5C 266.5,200.167 266.5,198.833 266.5,197.5C 267.497,175.34 267.831,153.006 267.5,130.5 Z"/></g>
<g><path style="opacity:1" fill="#738c83" d="M 262.5,177.5 C 263.924,179.515 264.59,181.848 264.5,184.5C 263.076,182.485 262.41,180.152 262.5,177.5 Z"/></g>
<g><path style="opacity:1" fill="#7e968d" d="M 217.5,181.5 C 218.889,186.269 219.556,191.269 219.5,196.5C 218.111,191.731 217.444,186.731 217.5,181.5 Z"/></g>
<g><path style="opacity:1" fill="#295041" d="M 275.5,215.5 C 277.857,215.337 280.19,215.503 282.5,216C 287.93,219.675 287.596,223.008 281.5,226C 283.211,227.133 283.711,228.633 283,230.5C 278.485,236.089 274.652,235.756 271.5,229.5C 272.637,225.893 274.304,222.56 276.5,219.5C 273.913,219.183 272.08,220.517 271,223.5C 270.13,222.892 269.63,222.059 269.5,221C 270.759,218.236 272.759,216.403 275.5,215.5 Z"/></g>
<g><path style="opacity:1" fill="#375c4e" d="M 217.5,216.5 C 220.957,216.667 221.29,217.667 218.5,219.5C 217.614,218.675 217.281,217.675 217.5,216.5 Z"/></g>
<g><path style="opacity:1" fill="#e8edeb" d="M 280.5,217.5 C 284.82,217.959 285.487,219.792 282.5,223C 280.854,224.401 279.187,224.568 277.5,223.5C 278.559,221.466 279.559,219.466 280.5,217.5 Z"/></g>
<g><path style="opacity:1" fill="#4a6b5e" d="M 311.5,216.5 C 312.552,216.351 313.552,216.517 314.5,217C 311.597,221.822 310.597,221.655 311.5,216.5 Z"/></g>
<g><path style="opacity:1" fill="#2f5446" d="M 321.5,216.5 C 322.552,216.351 323.552,216.517 324.5,217C 320.679,220.78 318.845,225.28 319,230.5C 320.696,228.434 322.529,226.934 324.5,226C 322.689,228.978 320.356,231.478 317.5,233.5C 316.119,233 315.453,232 315.5,230.5C 316.422,225.328 318.422,220.661 321.5,216.5 Z"/></g>
<g><path style="opacity:1" fill="#274d3e" d="M 201.5,232.5 C 202.091,231.849 202.757,231.182 203.5,230.5C 202.209,229.473 202.209,228.473 203.5,227.5C 203.631,226.761 203.464,226.094 203,225.5C 202.346,226.696 201.846,226.696 201.5,225.5C 202.589,222.41 204.589,220.41 207.5,219.5C 206.551,222.208 206.551,224.874 207.5,227.5C 208.478,227.023 209.311,226.357 210,225.5C 210.167,225.833 210.333,226.167 210.5,226.5C 207.91,227.927 206.244,230.093 205.5,233C 204.072,233.579 202.738,233.412 201.5,232.5 Z"/></g>
<g><path style="opacity:1" fill="#244b3c" d="M 195.5,224.5 C 194.849,223.909 194.182,223.243 193.5,222.5C 192.893,222.624 192.56,222.957 192.5,223.5C 191.094,223.973 190.427,224.973 190.5,226.5C 189.596,227.209 189.263,228.209 189.5,229.5C 189.369,230.376 189.702,231.043 190.5,231.5C 193.433,230.07 195.933,228.07 198,225.5C 198.464,226.094 198.631,226.761 198.5,227.5C 196.704,228.793 195.037,230.293 193.5,232C 187.438,234.942 185.272,233.109 187,226.5C 188.385,225.449 189.385,224.116 190,222.5C 193.208,219.513 195.041,220.18 195.5,224.5 Z"/></g>
<g><path style="opacity:1" fill="#c7d2ce" d="M 192.5,223.5 C 193.559,225.07 193.059,226.403 191,227.5C 190.601,227.272 190.435,226.938 190.5,226.5C 190.427,224.973 191.094,223.973 192.5,223.5 Z"/></g>
<g><path style="opacity:1" fill="#1f4838" d="M 335.5,226.5 C 334.903,226.735 334.57,227.235 334.5,228C 335.056,229.011 335.722,229.844 336.5,230.5C 335.998,232.085 334.998,232.585 333.5,232C 332.901,230.378 332.234,228.878 331.5,227.5C 330.928,229.255 330.094,230.922 329,232.5C 326.355,233.708 325.188,232.708 325.5,229.5C 326.286,223.715 329.62,220.715 335.5,220.5C 336.07,217.216 337.737,216.216 340.5,217.5C 338.048,220.071 336.381,223.071 335.5,226.5 Z"/></g>
<g><path style="opacity:1" fill="#607e73" d="M 192.5,223.5 C 192.56,222.957 192.893,222.624 193.5,222.5C 194.182,223.243 194.849,223.909 195.5,224.5C 194.089,226.914 192.089,228.581 189.5,229.5C 189.263,228.209 189.596,227.209 190.5,226.5C 190.435,226.938 190.601,227.272 191,227.5C 193.059,226.403 193.559,225.07 192.5,223.5 Z"/></g>
<g><path style="opacity:1" fill="#436659" d="M 257.5,224.5 C 259.924,224.192 262.257,224.526 264.5,225.5C 263.333,225.833 262.167,226.167 261,226.5C 259.319,226.392 258.152,225.725 257.5,224.5 Z"/></g>
<g><path style="opacity:1" fill="#2c5243" d="M 243.5,223.5 C 241.461,224.911 240.461,226.911 240.5,229.5C 240.029,230.901 239.362,232.234 238.5,233.5C 237.914,233.291 237.414,232.957 237,232.5C 236.751,227.996 238.418,224.329 242,221.5C 243.03,221.836 243.53,222.503 243.5,223.5 Z"/></g>
<g><path style="opacity:1" fill="#315648" d="M 308.5,221.5 C 309.756,221.461 310.756,221.961 311.5,223C 309.078,225.003 308.245,227.503 309,230.5C 310.696,228.434 312.529,226.934 314.5,226C 312.987,228.846 310.821,231.013 308,232.5C 306.268,232.266 305.434,231.266 305.5,229.5C 306.51,226.817 307.51,224.151 308.5,221.5 Z"/></g>
<g><path style="opacity:1" fill="#718c82" d="M 198.5,227.5 C 200.167,227.5 201.833,227.5 203.5,227.5C 202.209,228.473 202.209,229.473 203.5,230.5C 202.757,231.182 202.091,231.849 201.5,232.5C 199.273,231.599 198.273,229.933 198.5,227.5 Z"/></g>
<g><path style="opacity:1" fill="#93a8a0" d="M 243.5,223.5 C 243.369,224.239 243.536,224.906 244,225.5C 244.654,224.304 245.154,224.304 245.5,225.5C 244.652,227.409 244.318,229.409 244.5,231.5C 243.71,230.391 243.21,229.058 243,227.5C 242.292,228.381 241.458,229.047 240.5,229.5C 240.461,226.911 241.461,224.911 243.5,223.5 Z"/></g>
<g><path style="opacity:1" fill="#e5eae8" d="M 275.5,226.5 C 277.977,226.051 279.977,226.717 281.5,228.5C 279.929,231.093 277.596,232.093 274.5,231.5C 274.366,229.708 274.699,228.042 275.5,226.5 Z"/></g>
<g><path style="opacity:1" fill="#6c887e" d="M 232.5,226.5 C 232.775,228.842 233.608,228.842 235,226.5C 235.279,228.412 234.446,229.746 232.5,230.5C 231.314,229.039 231.314,227.705 232.5,226.5 Z"/></g>
<g><path style="opacity:1" fill="#2f5546" d="M 294.5,229.5 C 296.077,226.687 297.91,224.021 300,221.5C 300.5,221.833 301,222.167 301.5,222.5C 298.283,229.574 299.117,230.574 304,225.5C 303.253,228.445 301.42,230.778 298.5,232.5C 297.029,231.619 296.196,230.286 296,228.5C 295.617,229.056 295.117,229.389 294.5,229.5 Z"/></g>
<g><path style="opacity:1" fill="#d0d9d5" d="M 331.5,227.5 C 330.206,228.29 329.039,229.29 328,230.5C 327.542,227.904 328.375,225.737 330.5,224C 331.635,223.251 332.635,223.417 333.5,224.5C 332.807,225.518 332.141,226.518 331.5,227.5 Z"/></g>
<g><path style="opacity:1" fill="#7b948b" d="M 336.5,230.5 C 335.722,229.844 335.056,229.011 334.5,228C 334.57,227.235 334.903,226.735 335.5,226.5C 335.369,227.376 335.702,228.043 336.5,228.5C 337.591,226.985 338.924,226.152 340.5,226C 339.672,227.992 338.339,229.492 336.5,230.5 Z"/></g>
<g><path style="opacity:1" fill="#2a5041" d="M 244.5,231.5 C 244.318,229.409 244.652,227.409 245.5,225.5C 245.154,224.304 244.654,224.304 244,225.5C 243.536,224.906 243.369,224.239 243.5,223.5C 245.142,221.919 247.142,221.253 249.5,221.5C 248.069,224.354 247.236,227.354 247,230.5C 248.667,228.833 250.333,227.167 252,225.5C 251.454,228.093 249.954,230.26 247.5,232C 246.251,232.74 245.251,232.573 244.5,231.5 Z"/></g>
<g><path style="opacity:1" fill="#335749" d="M 215.5,221.5 C 216.497,221.47 217.164,221.97 217.5,223C 213.16,231.333 213.994,232.167 220,225.5C 219.459,228.876 217.625,231.542 214.5,233.5C 212.954,232.788 211.954,231.622 211.5,230C 212.725,227.054 214.058,224.22 215.5,221.5 Z"/></g>
<g><path style="opacity:1" fill="#234b3b" d="M 294.5,229.5 C 292.514,234.688 290.847,234.688 289.5,229.5C 289.687,225.004 291.687,222.67 295.5,222.5C 293.914,224.67 292.58,227.004 291.5,229.5C 292.425,230.562 293.425,230.562 294.5,229.5 Z"/></g>
<g><path style="opacity:1" fill="#204838" d="M 171.5,215.5 C 181.096,215.253 184.263,219.586 181,228.5C 178.834,231.507 176.001,233.507 172.5,234.5C 170.689,233.191 169.023,231.691 167.5,230C 168.985,226.029 170.985,222.362 173.5,219C 170.339,218.797 168.172,220.297 167,223.5C 166.13,222.892 165.63,222.059 165.5,221C 166.759,218.236 168.759,216.403 171.5,215.5 Z"/></g>
<g><path style="opacity:1" fill="#e8edeb" d="M 176.5,217.5 C 180.146,218.462 181.313,220.795 180,224.5C 178.043,228.643 174.876,230.976 170.5,231.5C 171.54,226.366 173.54,221.7 176.5,217.5 Z"/></g>
<g><path style="opacity:1" fill="#204939" d="M 232.5,226.5 C 231.314,227.705 231.314,229.039 232.5,230.5C 230.17,232.617 228.17,235.117 226.5,238C 224.359,238.884 222.693,238.384 221.5,236.5C 221.957,235.702 222.624,235.369 223.5,235.5C 223.517,237.028 224.184,237.528 225.5,237C 226.817,234.562 227.651,232.062 228,229.5C 227.092,231.439 225.592,232.439 223.5,232.5C 221.727,231.686 221.227,230.352 222,228.5C 223.467,225.734 225.3,223.234 227.5,221C 229.641,220.116 231.307,220.616 232.5,222.5C 227.682,222.491 225.182,225.157 225,230.5C 226.529,229.271 227.696,227.771 228.5,226C 230.066,225.235 231.399,225.402 232.5,226.5 Z"/></g>
<g><path style="opacity:1" fill="#8ca29a" d="M 223.5,235.5 C 224.833,234.5 224.833,233.5 223.5,232.5C 225.592,232.439 227.092,231.439 228,229.5C 227.651,232.062 226.817,234.562 225.5,237C 224.184,237.528 223.517,237.028 223.5,235.5 Z"/></g>
<g><path style="opacity:1" fill="#779087" d="M 218.5,247.5 C 233.658,246.504 248.991,246.17 264.5,246.5C 264.737,247.791 264.404,248.791 263.5,249.5C 248.871,247.516 233.871,246.85 218.5,247.5 Z"/></g>
<g><path style="opacity:1" fill="#849b92" d="M 310.5,247.5 C 296.5,247.5 282.5,247.5 268.5,247.5C 268.5,253.167 268.5,258.833 268.5,264.5C 267.51,258.69 267.177,252.69 267.5,246.5C 282.01,246.171 296.343,246.504 310.5,247.5 Z"/></g>
<g><path style="opacity:1" fill="#7a938a" d="M 271.5,284.5 C 272.738,286.214 273.405,288.214 273.5,290.5C 271.926,288.898 271.259,286.898 271.5,284.5 Z"/></g>
</svg>
