<?xml version="1.0" encoding="UTF-8"?>
<!DOCTYPE svg PUBLIC "-//W3C//DTD SVG 1.1//EN" "http://www.w3.org/Graphics/SVG/1.1/DTD/svg11.dtd">
<svg xmlns="http://www.w3.org/2000/svg" version="1.1" width="500px" height="500px" style="shape-rendering:geometricPrecision; text-rendering:geometricPrecision; image-rendering:optimizeQuality; fill-rule:evenodd; clip-rule:evenodd" xmlns:xlink="http://www.w3.org/1999/xlink">
<g><path style="opacity:1" fill="#fefefe" d="M -0.5,-0.5 C 166.167,-0.5 332.833,-0.5 499.5,-0.5C 499.5,166.167 499.5,332.833 499.5,499.5C 332.833,499.5 166.167,499.5 -0.5,499.5C -0.5,332.833 -0.5,166.167 -0.5,-0.5 Z"/></g>
<g><path style="opacity:1" fill="#023221" d="M 344.5,143.5 C 344.167,167.842 344.5,192.176 345.5,216.5C 346.107,216.376 346.44,216.043 346.5,215.5C 367.249,198.239 388.915,197.073 411.5,212C 423.617,223.728 431.45,237.894 435,254.5C 439.493,277.007 437.827,299.007 430,320.5C 421.413,341.422 406.246,354.922 384.5,361C 361.563,366.341 340.563,362.341 321.5,349C 309.2,337.903 302.034,324.069 300,307.5C 298.762,296.87 298.262,286.203 298.5,275.5C 313.833,275.5 329.167,275.5 344.5,275.5C 344.175,283.019 344.508,290.352 345.5,297.5C 345.26,312.946 348.427,327.613 355,341.5C 360.342,347.632 366.842,349.132 374.5,346C 377.219,344.403 379.386,342.237 381,339.5C 383.81,333.071 385.81,326.405 387,319.5C 390.292,296.828 390.292,274.161 387,251.5C 385.59,239.912 380.757,230.078 372.5,222C 365.694,218.309 359.361,218.976 353.5,224C 335.17,224.5 316.836,224.667 298.5,224.5C 298.831,197.995 298.498,171.661 297.5,145.5C 296.474,140.414 293.307,138.081 288,138.5C 285.23,138.757 282.73,139.757 280.5,141.5C 279.618,140.24 278.618,139.074 277.5,138C 292.587,124.983 309.92,120.316 329.5,124C 338.494,127.487 343.494,133.987 344.5,143.5 Z"/></g>
<g><path style="opacity:1" fill="#033221" d="M 296.5,219.5 C 296.5,220.833 296.5,222.167 296.5,223.5C 279.167,223.5 261.833,223.5 244.5,223.5C 244.795,221.265 244.461,219.265 243.5,217.5C 242.806,198.986 237.973,181.652 229,165.5C 219.134,149.65 204.967,143.15 186.5,146C 181.572,147.927 178.406,151.427 177,156.5C 176.333,216.5 176.333,276.5 177,336.5C 177.645,341.808 180.478,345.308 185.5,347C 208.386,349.144 224.22,339.644 233,318.5C 238.126,305.623 241.293,292.29 242.5,278.5C 243.404,277.791 243.737,276.791 243.5,275.5C 260.342,275.17 277.008,275.503 293.5,276.5C 279.457,328.03 245.79,356.864 192.5,363C 179.5,363.667 166.5,363.667 153.5,363C 145.467,362.229 138.301,359.396 132,354.5C 128.2,348.765 126.2,342.431 126,335.5C 125.83,274.793 125.33,214.126 124.5,153.5C 120.886,150.072 116.553,148.738 111.5,149.5C 99.1971,150.212 88.1971,154.379 78.5,162C 70.371,169.101 67.5377,177.934 70,188.5C 72.1315,195.303 76.6315,197.803 83.5,196C 88.0923,193.206 92.759,190.706 97.5,188.5C 103.21,189.037 107.043,192.037 109,197.5C 110.86,217.477 101.694,227.477 81.5,227.5C 61.3654,225.285 51.3654,213.951 51.5,193.5C 51.955,175.423 59.6217,161.256 74.5,151C 89.0046,142.276 104.671,136.943 121.5,135C 156.378,129.487 191.045,130.487 225.5,138C 267.385,149.255 291.051,176.422 296.5,219.5 Z"/></g>
<g><path style="opacity:1" fill="#678379" d="M 344.5,143.5 C 345.167,167.5 345.833,191.5 346.5,215.5C 346.44,216.043 346.107,216.376 345.5,216.5C 344.5,192.176 344.167,167.842 344.5,143.5 Z"/></g>
<g><path style="opacity:1" fill="#a1b3ad" d="M 297.5,145.5 C 298.498,171.661 298.831,197.995 298.5,224.5C 297.833,224.5 297.167,224.5 296.5,224.5C 296.5,224.167 296.5,223.833 296.5,223.5C 296.5,222.167 296.5,220.833 296.5,219.5C 297.498,195.006 297.831,170.339 297.5,145.5 Z"/></g>
<g><path style="opacity:1" fill="#486b5e" d="M 243.5,217.5 C 244.461,219.265 244.795,221.265 244.5,223.5C 261.833,223.5 279.167,223.5 296.5,223.5C 296.5,223.833 296.5,224.167 296.5,224.5C 278.833,224.5 261.167,224.5 243.5,224.5C 243.5,222.167 243.5,219.833 243.5,217.5 Z"/></g>
<g><path style="opacity:1" fill="#1a4333" d="M 191.5,239.5 C 202.118,239.636 205.285,244.636 201,254.5C 198.834,257.507 196.001,259.507 192.5,260.5C 190.082,259.585 188.082,258.085 186.5,256C 187.979,251.193 190.312,246.859 193.5,243C 189.96,243.181 187.46,245.014 186,248.5C 184.073,246.407 184.24,244.407 186.5,242.5C 188.145,241.304 189.811,240.304 191.5,239.5 Z"/></g>
<g><path style="opacity:1" fill="#274d3e" d="M 242.5,240.5 C 243.675,240.281 244.675,240.614 245.5,241.5C 242.687,246.688 241.687,246.354 242.5,240.5 Z"/></g>
<g><path style="opacity:1" fill="#1e4636" d="M 306.5,239.5 C 310.839,238.846 314.673,239.846 318,242.5C 319.091,247.098 317.257,249.931 312.5,251C 314.797,252.263 315.63,254.097 315,256.5C 309.768,262.311 305.602,261.811 302.5,255C 303.703,250.594 305.703,246.594 308.5,243C 305.15,243.447 302.65,245.28 301,248.5C 300.13,247.892 299.63,247.059 299.5,246C 301.065,242.933 303.398,240.766 306.5,239.5 Z"/></g>
<g><path style="opacity:1" fill="#194233" d="M 346.5,240.5 C 350.193,241.247 350.193,242.58 346.5,244.5C 345.374,243.192 345.374,241.858 346.5,240.5 Z"/></g>
<g><path style="opacity:1" fill="#22493a" d="M 357.5,240.5 C 358.675,240.281 359.675,240.614 360.5,241.5C 356.488,245.899 354.488,250.899 354.5,256.5C 355.99,254.874 357.49,253.208 359,251.5C 358.496,255.13 356.496,257.797 353,259.5C 352.228,259.355 351.561,259.022 351,258.5C 350.333,256.833 350.333,255.167 351,253.5C 353.18,249.14 355.347,244.807 357.5,240.5 Z"/></g>
<g><path style="opacity:1" fill="#194232" d="M 367.5,254.5 C 366.967,257.5 365.3,259 362.5,259C 360.64,254.031 361.973,250.031 366.5,247C 368.235,246.349 369.902,246.515 371.5,247.5C 372.833,245.5 374.167,243.5 375.5,241.5C 376.5,240.167 377.5,240.167 378.5,241.5C 375.225,245.7 373.391,250.366 373,255.5C 374.333,254.167 375.667,252.833 377,251.5C 376.253,254.445 374.42,256.778 371.5,258.5C 369.931,257.286 369.098,255.619 369,253.5C 368.617,254.056 368.117,254.389 367.5,254.5 Z"/></g>
<g><path style="opacity:1" fill="#f1f4f3" d="M 196.5,242.5 C 197.822,242.33 198.989,242.663 200,243.5C 201.079,251.696 197.579,256.362 189.5,257.5C 191.026,252.115 193.36,247.115 196.5,242.5 Z"/></g>
<g><path style="opacity:1" fill="#ecf0ee" d="M 311.5,241.5 C 315.701,241.426 317.035,243.259 315.5,247C 313.285,248.814 310.952,249.314 308.5,248.5C 310.02,246.338 311.02,244.005 311.5,241.5 Z"/></g>
<g><path style="opacity:1" fill="#234a3a" d="M 227.5,244.5 C 228.5,244.5 229.5,244.5 230.5,244.5C 229.491,247.527 229.491,250.527 230.5,253.5C 231.814,252.687 232.981,251.687 234,250.5C 233.914,252.943 232.581,254.61 230,255.5C 229.671,259.04 227.838,260.206 224.5,259C 222.393,257.736 221.393,255.903 221.5,253.5C 223.167,253.5 224.833,253.5 226.5,253.5C 226.649,252.448 226.483,251.448 226,250.5C 225.346,251.696 224.846,251.696 224.5,250.5C 225.559,248.466 226.559,246.466 227.5,244.5 Z"/></g>
<g><path style="opacity:1" fill="#214939" d="M 213.5,245.5 C 217.071,245.408 218.238,247.074 217,250.5C 214.957,252.712 212.791,254.712 210.5,256.5C 214.77,256.759 217.937,254.759 220,250.5C 218.676,256.59 214.843,259.424 208.5,259C 207.409,256.936 207.242,254.769 208,252.5C 209.371,249.734 211.204,247.401 213.5,245.5 Z"/></g>
<g><path style="opacity:1" fill="#1d4535" d="M 251.5,256.5 C 250.545,258.71 249.045,259.043 247,257.5C 246.682,253.295 248.182,249.795 251.5,247C 254.696,244.746 256.863,245.246 258,248.5C 256.951,247.483 255.784,247.316 254.5,248C 252.337,249.998 250.67,252.332 249.5,255C 249.836,256.03 250.503,256.53 251.5,256.5 Z"/></g>
<g><path style="opacity:1" fill="#1c4535" d="M 267.5,246.5 C 268.675,246.281 269.675,246.614 270.5,247.5C 269.167,248.62 268.667,249.953 269,251.5C 271.019,248.288 273.853,246.622 277.5,246.5C 276.254,249.837 275.421,253.17 275,256.5C 276.667,254.833 278.333,253.167 280,251.5C 279.454,254.093 277.954,256.26 275.5,258C 274.5,258.667 273.5,258.667 272.5,258C 271.535,255.526 271.368,253.026 272,250.5C 269.425,253.319 267.092,256.319 265,259.5C 264.056,258.737 263.556,257.737 263.5,256.5C 264.843,253.15 266.177,249.817 267.5,246.5 Z"/></g>
<g><path style="opacity:1" fill="#1a4333" d="M 336.5,253.5 C 335.901,255.934 334.401,257.601 332,258.5C 330.118,257.907 329.118,256.573 329,254.5C 327.987,256.846 326.321,258.513 324,259.5C 322.413,258.663 321.58,257.33 321.5,255.5C 322.326,251.841 324.159,248.841 327,246.5C 327.5,246.833 328,247.167 328.5,247.5C 326.173,250.137 325.007,253.137 325,256.5C 327.7,252.805 330.7,249.472 334,246.5C 334.5,246.833 335,247.167 335.5,247.5C 332.96,250.039 332.126,253.039 333,256.5C 334.039,255.29 335.206,254.29 336.5,253.5 Z"/></g>
<g><path style="opacity:1" fill="#234a3b" d="M 239.5,246.5 C 240.756,246.461 241.756,246.961 242.5,248C 239.841,250.439 238.841,253.272 239.5,256.5C 241.557,254.731 243.39,252.731 245,250.5C 244.327,254.374 242.161,257.374 238.5,259.5C 236.728,258.73 235.728,257.397 235.5,255.5C 236.585,252.335 237.918,249.335 239.5,246.5 Z"/></g>
<g><path style="opacity:1" fill="#234a3b" d="M 343.5,246.5 C 344.756,246.461 345.756,246.961 346.5,248C 343.841,250.439 342.841,253.272 343.5,256.5C 344.99,254.874 346.49,253.208 348,251.5C 347.459,254.876 345.625,257.542 342.5,259.5C 340.728,258.73 339.728,257.397 339.5,255.5C 340.57,252.361 341.904,249.361 343.5,246.5 Z"/></g>
<g><path style="opacity:1" fill="#dfe5e3" d="M 367.5,254.5 C 364.798,257.27 363.965,256.603 365,252.5C 365.919,249.356 367.752,248.356 370.5,249.5C 369.048,250.94 368.048,252.606 367.5,254.5 Z"/></g>
<g><path style="opacity:1" fill="#dee4e2" d="M 213.5,248.5 C 215.028,248.517 215.528,249.184 215,250.5C 209.608,254.543 209.108,253.877 213.5,248.5 Z"/></g>
<g><path style="opacity:1" fill="#1f4737" d="M 253.5,253.5 C 254.163,250.577 255.83,249.91 258.5,251.5C 257.572,252.768 257.405,254.101 258,255.5C 259.333,254.167 260.667,252.833 262,251.5C 261.223,254.631 259.223,256.964 256,258.5C 254.778,263.084 251.944,265.25 247.5,265C 246.549,264.282 246.383,263.449 247,262.5C 248.828,260.919 250.828,259.585 253,258.5C 253.833,256.833 254.667,255.167 255.5,253.5C 255.03,252.537 254.363,252.537 253.5,253.5 Z"/></g>
<g><path style="opacity:1" fill="#174131" d="M 287.5,249.5 C 289.604,249.201 291.604,249.534 293.5,250.5C 291.235,251.647 288.902,251.814 286.5,251C 287.056,250.617 287.389,250.117 287.5,249.5 Z"/></g>
<g><path style="opacity:1" fill="#527266" d="M 336.5,253.5 C 336.461,252.244 336.961,251.244 338,250.5C 338.585,251.998 338.085,252.998 336.5,253.5 Z"/></g>
<g><path style="opacity:1" fill="#e4e9e7" d="M 306.5,251.5 C 308.199,251.34 309.866,251.506 311.5,252C 312.832,255.526 311.499,257.359 307.5,257.5C 306.5,257.167 305.5,256.833 304.5,256.5C 305.174,254.805 305.841,253.138 306.5,251.5 Z"/></g>
<g><path style="opacity:1" fill="#20493a" d="M 253.5,253.5 C 253.573,255.027 252.906,256.027 251.5,256.5C 251.427,254.973 252.094,253.973 253.5,253.5 Z"/></g>
<g><path style="opacity:1" fill="#becbc7" d="M 223.5,256.5 C 224.386,255.224 225.386,255.224 226.5,256.5C 225.575,257.562 224.575,257.562 223.5,256.5 Z"/></g>
<g><path style="opacity:1" fill="#e9edec" d="M 249.5,261.5 C 251.975,261.747 251.975,262.413 249.5,263.5C 248.537,263.03 248.537,262.363 249.5,261.5 Z"/></g>
<g><path style="opacity:1" fill="#476a5d" d="M 293.5,276.5 C 277.008,275.503 260.342,275.17 243.5,275.5C 243.737,276.791 243.404,277.791 242.5,278.5C 242.5,277.167 242.5,275.833 242.5,274.5C 259.846,274.167 277.179,274.5 294.5,275.5C 294.376,276.107 294.043,276.44 293.5,276.5 Z"/></g>
<g><path style="opacity:1" fill="#46695c" d="M 298.5,275.5 C 313.991,274.504 329.658,274.17 345.5,274.5C 345.5,282.167 345.5,289.833 345.5,297.5C 344.508,290.352 344.175,283.019 344.5,275.5C 329.167,275.5 313.833,275.5 298.5,275.5 Z"/></g>
</svg>
