<?xml version="1.0" encoding="UTF-8"?>
<!DOCTYPE svg PUBLIC "-//W3C//DTD SVG 1.1//EN" "http://www.w3.org/Graphics/SVG/1.1/DTD/svg11.dtd">
<svg xmlns="http://www.w3.org/2000/svg" version="1.1" width="259px" height="194px" style="shape-rendering:geometricPrecision; text-rendering:geometricPrecision; image-rendering:optimizeQuality; fill-rule:evenodd; clip-rule:evenodd" xmlns:xlink="http://www.w3.org/1999/xlink">
<g><path style="opacity:1" fill="#fefefe" d="M -0.5,-0.5 C 85.8333,-0.5 172.167,-0.5 258.5,-0.5C 258.5,64.1667 258.5,128.833 258.5,193.5C 172.167,193.5 85.8333,193.5 -0.5,193.5C -0.5,128.833 -0.5,64.1667 -0.5,-0.5 Z"/></g>
<g><path style="opacity:1" fill="#f14d1c" d="M 128.5,11.5 C 128.5,30.1667 128.5,48.8333 128.5,67.5C 117.833,67.5 107.167,67.5 96.5,67.5C 85.3215,66.1539 77.8215,60.1539 74,49.5C 69.5011,32.3323 75.3344,20.1657 91.5,13C 103.772,11.5824 116.105,11.0824 128.5,11.5 Z"/></g>
<g><path style="opacity:1" fill="#fe7163" d="M 128.5,11.5 C 139.838,11.3335 151.172,11.5001 162.5,12C 181.875,18.5823 188.709,31.749 183,51.5C 178.199,60.8089 170.699,66.4755 160.5,68.5C 156.833,68.5 153.167,68.5 149.5,68.5C 142.5,68.5 135.5,68.5 128.5,68.5C 117.833,68.5 107.167,68.5 96.5,68.5C 96.5,68.1667 96.5,67.8333 96.5,67.5C 107.167,67.5 117.833,67.5 128.5,67.5C 128.5,48.8333 128.5,30.1667 128.5,11.5 Z"/></g>
<g><path style="opacity:1" fill="#a158fe" d="M 96.5,68.5 C 107.167,68.5 117.833,68.5 128.5,68.5C 128.5,76.1667 128.5,83.8333 128.5,91.5C 128.5,94.5 128.5,97.5 128.5,100.5C 128.5,108.5 128.5,116.5 128.5,124.5C 117.162,124.667 105.828,124.5 94.5,124C 76.3582,117.894 69.5249,105.394 74,86.5C 78.4153,76.5791 85.9153,70.5791 96.5,68.5 Z"/></g>
<g><path style="opacity:1" fill="#f7f7fc" d="M 128.5,68.5 C 135.5,68.5 142.5,68.5 149.5,68.5C 138.672,72.6619 131.672,80.3286 128.5,91.5C 128.5,83.8333 128.5,76.1667 128.5,68.5 Z"/></g>
<g><path style="opacity:1" fill="#1ebcfc" d="M 149.5,68.5 C 153.167,68.5 156.833,68.5 160.5,68.5C 178.427,72.2593 186.593,83.2593 185,101.5C 179.948,119.453 168.115,126.953 149.5,124C 138.036,120.042 131.036,112.209 128.5,100.5C 128.5,97.5 128.5,94.5 128.5,91.5C 131.672,80.3286 138.672,72.6619 149.5,68.5 Z"/></g>
<g><path style="opacity:1" fill="#0ecd84" d="M 91.5,125.5 C 103.833,125.5 116.167,125.5 128.5,125.5C 128.92,138.228 128.42,150.894 127,163.5C 116.626,182.107 102.126,186.273 83.5,176C 71.758,165.428 69.258,152.928 76,138.5C 79.9924,132.612 85.1591,128.278 91.5,125.5 Z"/></g>
</svg>
