<?xml version="1.0" encoding="UTF-8"?>
<!DOCTYPE svg PUBLIC "-//W3C//DTD SVG 1.1//EN" "http://www.w3.org/Graphics/SVG/1.1/DTD/svg11.dtd">
<svg xmlns="http://www.w3.org/2000/svg" version="1.1" width="225px" height="225px" style="shape-rendering:geometricPrecision; text-rendering:geometricPrecision; image-rendering:optimizeQuality; fill-rule:evenodd; clip-rule:evenodd" xmlns:xlink="http://www.w3.org/1999/xlink">
<g><path style="opacity:1" fill="#fefefe" d="M -0.5,-0.5 C 74.5,-0.5 149.5,-0.5 224.5,-0.5C 224.5,74.5 224.5,149.5 224.5,224.5C 149.5,224.5 74.5,224.5 -0.5,224.5C -0.5,149.5 -0.5,74.5 -0.5,-0.5 Z"/></g>
<g><path style="opacity:1" fill="#8f2b1f" d="M 205.5,105.5 C 190.342,106.496 175.009,106.83 159.5,106.5C 143.33,94.9165 126.997,83.5832 110.5,72.5C 93.566,83.4329 76.8994,94.7662 60.5,106.5C 50.8333,106.5 41.1667,106.5 31.5,106.5C 31.5,91.8333 31.5,77.1667 31.5,62.5C 40.8333,62.5 50.1667,62.5 59.5,62.5C 59.1796,65.8984 59.513,69.2317 60.5,72.5C 77.1667,60.8333 93.8333,49.1667 110.5,37.5C 142.185,60.1916 173.852,82.8583 205.5,105.5 Z"/></g>
<g><path style="opacity:1" fill="#ab716b" d="M 59.5,62.5 C 50.1667,62.5 40.8333,62.5 31.5,62.5C 31.5,77.1667 31.5,91.8333 31.5,106.5C 41.1667,106.5 50.8333,106.5 60.5,106.5C 50.6806,107.494 40.6806,107.827 30.5,107.5C 30.5,92.1667 30.5,76.8333 30.5,61.5C 40.3478,61.1729 50.0144,61.5062 59.5,62.5 Z"/></g>
<g><path style="opacity:1" fill="#9f5f5b" d="M 205.5,105.5 C 206.289,105.783 206.956,106.283 207.5,107C 191.328,107.828 175.328,107.661 159.5,106.5C 175.009,106.83 190.342,106.496 205.5,105.5 Z"/></g>
<g><path style="opacity:1" fill="#706f6e" d="M 172.5,119.5 C 164.167,119.5 155.833,119.5 147.5,119.5C 147.5,121.833 147.5,124.167 147.5,126.5C 146.527,124.052 146.194,121.385 146.5,118.5C 155.349,118.174 164.016,118.507 172.5,119.5 Z"/></g>
<g><path style="opacity:1" fill="#656564" d="M 184.5,119.5 C 181.615,119.194 178.948,119.527 176.5,120.5C 175.957,120.44 175.624,120.107 175.5,119.5C 178.645,118.197 181.645,118.197 184.5,119.5 Z"/></g>
<g><path style="opacity:1" fill="#676766" d="M 198.5,119.5 C 201.355,118.197 204.355,118.197 207.5,119.5C 207.376,120.107 207.043,120.44 206.5,120.5C 204.052,119.527 201.385,119.194 198.5,119.5 Z"/></g>
<g><path style="opacity:1" fill="#777576" d="M 52.5,126.5 C 52.5,124.167 52.5,121.833 52.5,119.5C 45.5,119.5 38.5,119.5 31.5,119.5C 31.5,130.5 31.5,141.5 31.5,152.5C 30.5052,141.346 30.1719,130.012 30.5,118.5C 38.1667,118.5 45.8333,118.5 53.5,118.5C 53.8064,121.385 53.4731,124.052 52.5,126.5 Z"/></g>
<g><path style="opacity:1" fill="#221e1e" d="M 52.5,126.5 C 47.8333,126.5 43.1667,126.5 38.5,126.5C 38.5,128.167 38.5,129.833 38.5,131.5C 41.6248,132.479 44.9581,132.813 48.5,132.5C 48.5,134.833 48.5,137.167 48.5,139.5C 45.1667,139.5 41.8333,139.5 38.5,139.5C 38.5,141.5 38.5,143.5 38.5,145.5C 43.1667,145.5 47.8333,145.5 52.5,145.5C 52.5,147.833 52.5,150.167 52.5,152.5C 45.5,152.5 38.5,152.5 31.5,152.5C 31.5,141.5 31.5,130.5 31.5,119.5C 38.5,119.5 45.5,119.5 52.5,119.5C 52.5,121.833 52.5,124.167 52.5,126.5 Z"/></g>
<g><path style="opacity:1" fill="#231f1f" d="M 69.5,118.5 C 88.3183,119.16 94.3183,128.16 87.5,145.5C 89.316,147.817 91.316,149.984 93.5,152C 85.1667,151.333 76.8333,151.333 68.5,152C 58.9515,147.4 55.4515,139.9 58,129.5C 60.4373,124.226 64.2706,120.56 69.5,118.5 Z"/></g>
<g><path style="opacity:1" fill="#221f1e" d="M 97.5,118.5 C 99.8333,118.5 102.167,118.5 104.5,118.5C 104.334,126.174 104.5,133.841 105,141.5C 108.717,146.815 112.383,146.815 116,141.5C 116.5,133.841 116.666,126.174 116.5,118.5C 118.833,118.5 121.167,118.5 123.5,118.5C 123.666,127.173 123.5,135.84 123,144.5C 118.423,152.248 111.923,154.415 103.5,151C 101.622,149.457 100.122,147.624 99,145.5C 97.5863,136.582 97.0863,127.582 97.5,118.5 Z"/></g>
<g><path style="opacity:1" fill="#3e3b3a" d="M 139.5,152.5 C 139.5,141.5 139.5,130.5 139.5,119.5C 137.5,119.5 135.5,119.5 133.5,119.5C 133.5,130.5 133.5,141.5 133.5,152.5C 132.505,141.346 132.172,130.012 132.5,118.5C 135.167,118.5 137.833,118.5 140.5,118.5C 140.828,130.012 140.495,141.346 139.5,152.5 Z"/></g>
<g><path style="opacity:1" fill="#211c1c" d="M 139.5,152.5 C 137.5,152.5 135.5,152.5 133.5,152.5C 133.5,141.5 133.5,130.5 133.5,119.5C 135.5,119.5 137.5,119.5 139.5,119.5C 139.5,130.5 139.5,141.5 139.5,152.5 Z"/></g>
<g><path style="opacity:1" fill="#211e1d" d="M 172.5,119.5 C 172.5,121.833 172.5,124.167 172.5,126.5C 169.5,126.5 166.5,126.5 163.5,126.5C 163.5,135.167 163.5,143.833 163.5,152.5C 161.167,152.5 158.833,152.5 156.5,152.5C 156.5,143.833 156.5,135.167 156.5,126.5C 153.5,126.5 150.5,126.5 147.5,126.5C 147.5,124.167 147.5,121.833 147.5,119.5C 155.833,119.5 164.167,119.5 172.5,119.5 Z"/></g>
<g><path style="opacity:1" fill="#272323" d="M 184.5,119.5 C 186.583,122.651 188.916,125.651 191.5,128.5C 194.095,125.612 196.428,122.612 198.5,119.5C 201.385,119.194 204.052,119.527 206.5,120.5C 203.01,125.471 199.51,130.471 196,135.5C 195.501,141.157 195.334,146.824 195.5,152.5C 192.833,152.5 190.167,152.5 187.5,152.5C 187.666,146.824 187.499,141.157 187,135.5C 183.28,130.62 179.78,125.62 176.5,120.5C 178.948,119.527 181.615,119.194 184.5,119.5 Z"/></g>
<g><path style="opacity:1" fill="#eeeded" d="M 71.5,125.5 C 80.5163,126.166 84.1829,130.833 82.5,139.5C 80.5,138.167 78.8333,136.5 77.5,134.5C 76.635,133.417 75.635,133.251 74.5,134C 73.1667,135.333 71.8333,136.667 70.5,138C 72.684,140.016 74.684,142.183 76.5,144.5C 69.3239,145.9 65.3239,142.9 64.5,135.5C 64.8768,130.731 67.2101,127.398 71.5,125.5 Z"/></g>
<g><path style="opacity:1" fill="#8c8b8a" d="M 38.5,131.5 C 42.1667,131.5 45.8333,131.5 49.5,131.5C 49.8064,134.385 49.4731,137.052 48.5,139.5C 48.5,137.167 48.5,134.833 48.5,132.5C 44.9581,132.813 41.6248,132.479 38.5,131.5 Z"/></g>
</svg>
