<?xml version="1.0" encoding="UTF-8"?>
<!DOCTYPE svg PUBLIC "-//W3C//DTD SVG 1.1//EN" "http://www.w3.org/Graphics/SVG/1.1/DTD/svg11.dtd">
<svg xmlns="http://www.w3.org/2000/svg" version="1.1" width="225px" height="225px" style="shape-rendering:geometricPrecision; text-rendering:geometricPrecision; image-rendering:optimizeQuality; fill-rule:evenodd; clip-rule:evenodd" xmlns:xlink="http://www.w3.org/1999/xlink">
<g><path style="opacity:1" fill="#fecc1b" d="M -0.5,-0.5 C 74.5,-0.5 149.5,-0.5 224.5,-0.5C 224.5,74.5 224.5,149.5 224.5,224.5C 149.5,224.5 74.5,224.5 -0.5,224.5C -0.5,149.5 -0.5,74.5 -0.5,-0.5 Z"/></g>
<g><path style="opacity:1" fill="#21a180" d="M 171.5,79.5 C 182.333,80.5105 186.167,86.1772 183,96.5C 180.903,100.729 177.903,104.062 174,106.5C 173.167,106.333 172.333,106.167 171.5,106C 167.454,101.65 164.787,96.6505 163.5,91C 163.64,85.3674 166.306,81.534 171.5,79.5 Z"/></g>
<g><path style="opacity:1" fill="#f8cc1f" d="M 171.5,85.5 C 175.733,84.7421 178.399,86.4088 179.5,90.5C 178.299,93.8718 176.466,96.8718 174,99.5C 171.271,97.1986 169.437,94.3652 168.5,91C 168.613,88.6013 169.613,86.7679 171.5,85.5 Z"/></g>
<g><path style="opacity:1" fill="#0da082" d="M 78.5,92.5 C 79.8221,92.33 80.9887,92.6634 82,93.5C 82.6667,104.167 82.6667,114.833 82,125.5C 80.6667,126.833 79.3333,126.833 78,125.5C 77.1909,114.424 77.3575,103.424 78.5,92.5 Z"/></g>
<g><path style="opacity:1" fill="#25a27f" d="M 55.5,93.5 C 59.247,93.3924 62.9137,93.8924 66.5,95C 70.732,96.762 71.3987,99.262 68.5,102.5C 60.4225,97.363 53.9225,98.6963 49,106.5C 47.8529,117.353 52.6862,122.186 63.5,121C 64.4162,120.626 65.2496,120.126 66,119.5C 66.4955,117.527 66.6621,115.527 66.5,113.5C 64.1432,113.663 61.8098,113.497 59.5,113C 58.1667,111.667 58.1667,110.333 59.5,109C 63.7548,108.204 67.9215,108.371 72,109.5C 72.6667,113.5 72.6667,117.5 72,121.5C 66.6892,126.146 60.5225,127.646 53.5,126C 44.1127,121.181 40.946,113.681 44,103.5C 46.8178,98.8388 50.6511,95.5055 55.5,93.5 Z"/></g>
<g><path style="opacity:1" fill="#23a280" d="M 96.5,101.5 C 109.516,101.676 114.35,108.009 111,120.5C 106.824,126.112 101.324,127.945 94.5,126C 87.9298,122.345 85.7632,116.845 88,109.5C 90.0982,105.897 92.9315,103.23 96.5,101.5 Z"/></g>
<g><path style="opacity:1" fill="#24a280" d="M 133.5,101.5 C 135.595,101.76 136.928,102.926 137.5,105C 134.804,111.558 131.971,118.058 129,124.5C 127.267,126.602 125.267,126.935 123,125.5C 119.463,118.05 116.629,110.383 114.5,102.5C 116.288,102.215 117.955,102.548 119.5,103.5C 121.569,108.873 123.736,114.207 126,119.5C 128.239,113.36 130.739,107.36 133.5,101.5 Z"/></g>
<g><path style="opacity:1" fill="#1ea180" d="M 148.5,101.5 C 163.014,102.168 167.514,109.168 162,122.5C 156.209,127.18 150.042,127.68 143.5,124C 136.894,114.547 138.561,107.047 148.5,101.5 Z"/></g>
<g><path style="opacity:1" fill="#f8cc20" d="M 149.5,106.5 C 156.657,106.155 159.824,109.488 159,116.5C 156.975,121.145 153.475,122.645 148.5,121C 143.003,115.683 143.336,110.85 149.5,106.5 Z"/></g>
<g><path style="opacity:1" fill="#facc1e" d="M 96.5,106.5 C 104.641,106.481 107.808,110.481 106,118.5C 103.441,121.349 100.274,122.183 96.5,121C 92.7885,118.487 91.6218,114.987 93,110.5C 94.3756,109.295 95.5423,107.962 96.5,106.5 Z"/></g>
<g><path style="opacity:1" fill="#22a180" d="M 172.5,108.5 C 176.35,108.701 177.35,110.534 175.5,114C 170.722,114.073 169.722,112.24 172.5,108.5 Z"/></g>
</svg>
