<?xml version="1.0" encoding="UTF-8"?>
<!DOCTYPE svg PUBLIC "-//W3C//DTD SVG 1.1//EN" "http://www.w3.org/Graphics/SVG/1.1/DTD/svg11.dtd">
<svg xmlns="http://www.w3.org/2000/svg" version="1.1" width="225px" height="225px" style="shape-rendering:geometricPrecision; text-rendering:geometricPrecision; image-rendering:optimizeQuality; fill-rule:evenodd; clip-rule:evenodd" xmlns:xlink="http://www.w3.org/1999/xlink">
<g><path style="opacity:1" fill="#fefefe" d="M -0.5,-0.5 C 74.5,-0.5 149.5,-0.5 224.5,-0.5C 224.5,74.5 224.5,149.5 224.5,224.5C 149.5,224.5 74.5,224.5 -0.5,224.5C -0.5,149.5 -0.5,74.5 -0.5,-0.5 Z"/></g>
<g><path style="opacity:1" fill="#5627fc" d="M 136.5,83.5 C 139.5,83.5 142.5,83.5 145.5,83.5C 145.5,86.5 145.5,89.5 145.5,92.5C 143.833,92.5 142.167,92.5 140.5,92.5C 140.5,90.5 140.5,88.5 140.5,86.5C 139.167,86.5 137.833,86.5 136.5,86.5C 136.5,85.5 136.5,84.5 136.5,83.5 Z"/></g>
<g><path style="opacity:1" fill="#7bfe2b" d="M 148.5,86.5 C 152.485,86.6294 153.818,88.4628 152.5,92C 151.216,92.6838 150.049,92.5171 149,91.5C 148.506,89.8659 148.34,88.1992 148.5,86.5 Z"/></g>
<g><path style="opacity:1" fill="#511ffd" d="M 168.5,83.5 C 170.833,83.5 173.167,83.5 175.5,83.5C 175.5,84.5 175.5,85.5 175.5,86.5C 169.792,87.1991 167.459,90.5324 168.5,96.5C 170.5,96.5 172.5,96.5 174.5,96.5C 174.5,97.5 174.5,98.5 174.5,99.5C 172.833,99.5 171.167,99.5 169.5,99.5C 169.5,106.167 169.5,112.833 169.5,119.5C 170.675,119.281 171.675,119.614 172.5,120.5C 168.833,121.833 165.167,121.833 161.5,120.5C 162.242,119.713 163.075,119.047 164,118.5C 164.5,112.175 164.666,105.842 164.5,99.5C 163.167,99.5 161.833,99.5 160.5,99.5C 160.5,98.5 160.5,97.5 160.5,96.5C 161.833,96.5 163.167,96.5 164.5,96.5C 163.535,91.3172 164.868,86.9839 168.5,83.5 Z"/></g>
<g><path style="opacity:1" fill="#4b17fc" d="M 39.5,85.5 C 44.8365,85.2509 49.8365,86.4175 54.5,89C 55.4438,91.7191 55.7771,94.5525 55.5,97.5C 54.1266,97.6567 52.7932,97.49 51.5,97C 49.6739,91.7718 46.0072,90.1052 40.5,92C 38.6217,93.5429 37.1217,95.3762 36,97.5C 34.8898,103.426 35.5564,109.092 38,114.5C 41.5828,116.29 45.4161,116.957 49.5,116.5C 49.5,114.167 49.5,111.833 49.5,109.5C 47.8333,109.5 46.1667,109.5 44.5,109.5C 44.5,107.833 44.5,106.167 44.5,104.5C 48.5,104.5 52.5,104.5 56.5,104.5C 59.1598,118.341 53.4932,124.174 39.5,122C 31.5986,118.669 27.932,112.669 28.5,104C 28.4908,95.5005 32.1575,89.3338 39.5,85.5 Z"/></g>
<g><path style="opacity:1" fill="#78fe29" d="M 145.5,95.5 C 144.081,94.5489 142.415,94.2155 140.5,94.5C 142.76,93.1606 147.76,93.1606 155.5,94.5C 155.662,92.4727 155.495,90.4727 155,88.5C 153.642,86.1405 152.642,83.8072 152,81.5C 158.297,87.378 160.297,94.378 158,102.5C 154.624,98.7294 150.458,96.3961 145.5,95.5 Z"/></g>
<g><path style="opacity:1" fill="#4811fc" d="M 65.5,95.5 C 68.8499,95.335 72.1832,95.5017 75.5,96C 78,97.1667 79.8333,99 81,101.5C 81.6667,105.833 81.6667,110.167 81,114.5C 78.3988,121.047 73.5655,123.547 66.5,122C 60.0208,117.96 57.5208,112.127 59,104.5C 59.8727,100.475 62.0393,97.4754 65.5,95.5 Z"/></g>
<g><path style="opacity:1" fill="#4e1afc" d="M 121.5,83.5 C 124.833,83.5 128.167,83.5 131.5,83.5C 131.5,94.8333 131.5,106.167 131.5,117.5C 132.5,117.5 133.5,117.5 134.5,117.5C 134.5,118.833 134.5,120.167 134.5,121.5C 130.97,122.011 127.804,121.344 125,119.5C 118.428,124.345 113.428,123.012 110,115.5C 108.89,109.574 109.556,103.908 112,98.5C 115.309,95.3533 119.142,94.6867 123.5,96.5C 124.48,93.9135 124.813,91.2469 124.5,88.5C 123.5,88.5 122.5,88.5 121.5,88.5C 121.5,86.8333 121.5,85.1667 121.5,83.5 Z"/></g>
<g><path style="opacity:1" fill="#4a14fc" d="M 90.5,95.5 C 103.247,94.0804 108.747,99.7471 107,112.5C 104.209,121.646 98.3753,124.479 89.5,121C 84.7548,115.731 83.2548,109.564 85,102.5C 85.9668,99.3794 87.8001,97.046 90.5,95.5 Z"/></g>
<g><path style="opacity:1" fill="#4a16fb" d="M 140.5,94.5 C 142.415,94.2155 144.081,94.5489 145.5,95.5C 145.5,103.5 145.5,111.5 145.5,119.5C 146.675,119.281 147.675,119.614 148.5,120.5C 144.833,121.833 141.167,121.833 137.5,120.5C 138.242,119.713 139.075,119.047 140,118.5C 140.5,110.507 140.666,102.507 140.5,94.5 Z"/></g>
<g><path style="opacity:1" fill="#f9f6fd" d="M 68.5,100.5 C 71.8078,99.9738 73.9745,101.307 75,104.5C 75.9559,108.572 75.4559,112.405 73.5,116C 70.1658,117.212 67.6658,116.379 66,113.5C 64.7428,108.617 65.5761,104.284 68.5,100.5 Z"/></g>
<g><path style="opacity:1" fill="#f9f6fc" d="M 93.5,100.5 C 96.3245,100.081 98.4912,101.081 100,103.5C 100.978,107.9 100.478,112.067 98.5,116C 94.5635,117.461 92.0635,116.295 91,112.5C 89.888,108.019 90.7213,104.019 93.5,100.5 Z"/></g>
<g><path style="opacity:1" fill="#fcfbfd" d="M 118.5,100.5 C 120.262,100.357 121.929,100.691 123.5,101.5C 124.802,106.385 124.802,111.218 123.5,116C 120.975,116.896 118.808,116.396 117,114.5C 115.966,109.543 116.466,104.876 118.5,100.5 Z"/></g>
<g><path style="opacity:1" fill="#5827fc" d="M 181.5,95.5 C 192.279,94.7006 196.946,99.7006 195.5,110.5C 190.167,110.5 184.833,110.5 179.5,110.5C 181.012,118.273 185.512,120.607 193,117.5C 193.692,118.025 194.192,118.692 194.5,119.5C 185.149,125.182 178.649,122.849 175,112.5C 173.852,105.477 176.019,99.8104 181.5,95.5 Z"/></g>
<g><path style="opacity:1" fill="#f7f3fc" d="M 182.5,99.5 C 188.833,98.5 191.5,101.167 190.5,107.5C 186.833,107.5 183.167,107.5 179.5,107.5C 179.394,104.385 180.394,101.719 182.5,99.5 Z"/></g>
<g><path style="opacity:1" fill="#7ffe39" d="M 154.5,101.5 C 156.714,102.392 157.714,104.058 157.5,106.5C 155.311,112.867 153.144,119.2 151,125.5C 149.595,121.928 149.262,118.261 150,114.5C 152.57,110.56 154.07,106.227 154.5,101.5 Z"/></g>
<g><path style="opacity:1" fill="#7041fa" d="M 151.5,132.5 C 153.56,131.189 155.726,131.189 158,132.5C 161.635,139.985 159.468,142.819 151.5,141C 152.817,138.063 152.817,135.23 151.5,132.5 Z"/></g>
<g><path style="opacity:1" fill="#d4c2fc" d="M 153.5,132.5 C 155.346,132.222 156.68,132.889 157.5,134.5C 156.311,135.429 154.978,135.762 153.5,135.5C 153.5,134.5 153.5,133.5 153.5,132.5 Z"/></g>
<g><path style="opacity:1" fill="#5e30f9" d="M 47.5,133.5 C 48.9305,133.421 50.2638,133.754 51.5,134.5C 52.4742,136.743 52.8076,139.076 52.5,141.5C 48.7593,142.401 46.7593,141.068 46.5,137.5C 47.9778,137.762 49.3112,137.429 50.5,136.5C 49.3493,135.269 48.1827,135.269 47,136.5C 46.5304,135.423 46.6971,134.423 47.5,133.5 Z"/></g>
<g><path style="opacity:1" fill="#5428f9" d="M 192.5,133.5 C 193.675,133.281 194.675,133.614 195.5,134.5C 193.855,136.925 192.689,139.592 192,142.5C 191.035,144.26 189.868,144.594 188.5,143.5C 190.882,140.945 190.882,138.278 188.5,135.5C 188.833,135.167 189.167,134.833 189.5,134.5C 191.404,138.444 192.404,138.11 192.5,133.5 Z"/></g>
<g><path style="opacity:1" fill="#5323f9" d="M 174.5,133.5 C 175.5,133.5 176.5,133.5 177.5,133.5C 177.192,135.924 177.526,138.257 178.5,140.5C 180.729,138.901 181.062,136.901 179.5,134.5C 179.833,134.167 180.167,133.833 180.5,133.5C 181.214,136.027 181.88,138.527 182.5,141C 180.231,141.758 178.064,141.591 176,140.5C 175.56,138.134 175.06,135.801 174.5,133.5 Z"/></g>
<g><path style="opacity:1" fill="#5225fa" d="M 28.5,132.5 C 30.8953,131.186 33.3953,131.186 36,132.5C 37.1772,136.492 35.6772,138.158 31.5,137.5C 31.33,138.822 31.6634,139.989 32.5,141C 31.1667,141.667 29.8333,141.667 28.5,141C 29.8166,138.063 29.8166,135.23 28.5,132.5 Z"/></g>
<g><path style="opacity:1" fill="#d8cbfb" d="M 31.5,132.5 C 33.3464,132.222 34.6798,132.889 35.5,134.5C 34.6798,136.111 33.3464,136.778 31.5,136.5C 31.5,135.167 31.5,133.833 31.5,132.5 Z"/></g>
<g><path style="opacity:1" fill="#6537fa" d="M 73.5,133.5 C 75.1439,133.286 76.6439,133.62 78,134.5C 78.4966,136.81 78.6633,139.143 78.5,141.5C 74.7593,142.401 72.7593,141.068 72.5,137.5C 73.9778,137.762 75.3112,137.429 76.5,136.5C 75.3493,135.269 74.1827,135.269 73,136.5C 72.5304,135.423 72.6971,134.423 73.5,133.5 Z"/></g>
<g><path style="opacity:1" fill="#582cfa" d="M 81.5,133.5 C 83.3464,133.222 84.6798,133.889 85.5,135.5C 84.4425,135.906 83.1092,135.906 81.5,135.5C 81.2148,137.288 81.5481,138.955 82.5,140.5C 83.4776,140.023 84.3109,139.357 85,138.5C 85.5378,140.473 84.7044,141.473 82.5,141.5C 81.5581,141.392 80.7247,141.059 80,140.5C 79.1668,137.829 79.6668,135.496 81.5,133.5 Z"/></g>
<g><path style="opacity:1" fill="#693ff9" d="M 113.5,133.5 C 116.833,133.5 118.5,135.167 118.5,138.5C 116.801,138.34 115.134,138.506 113.5,139C 114.841,140.295 116.174,140.795 117.5,140.5C 111.403,141.214 110.069,138.881 113.5,133.5 Z"/></g>
<g><path style="opacity:1" fill="#5b2ef9" d="M 126.5,130.5 C 127.5,130.5 128.5,130.5 129.5,130.5C 129.211,134.106 129.544,137.606 130.5,141C 126.848,141.499 123.182,141.665 119.5,141.5C 119.5,140.167 119.5,138.833 119.5,137.5C 120.978,137.762 122.311,137.429 123.5,136.5C 122.349,135.269 121.183,135.269 120,136.5C 119.699,133.909 120.866,133.075 123.5,134C 124.964,135.864 125.964,138.031 126.5,140.5C 127.666,137.163 127.666,133.83 126.5,130.5 Z"/></g>
<g><path style="opacity:1" fill="#542afa" d="M 86.5,133.5 C 87.5,133.5 88.5,133.5 89.5,133.5C 89.3398,135.199 89.5065,136.866 90,138.5C 91.2937,137.146 91.4604,135.812 90.5,134.5C 91.5,133.167 92.5,133.167 93.5,134.5C 92.5801,138.294 90.9135,141.627 88.5,144.5C 88.1667,144.167 87.8333,143.833 87.5,143.5C 88.311,142.784 88.9777,141.95 89.5,141C 88.3487,138.535 87.3487,136.035 86.5,133.5 Z"/></g>
<g><path style="opacity:1" fill="#5d2efa" d="M 168.5,133.5 C 170.144,133.286 171.644,133.62 173,134.5C 173.236,136.764 173.736,138.931 174.5,141C 172.231,141.758 170.064,141.591 168,140.5C 167.333,139.833 167.333,139.167 168,138.5C 169.205,137.929 170.372,137.262 171.5,136.5C 170.609,135.41 169.609,135.41 168.5,136.5C 167.438,135.575 167.438,134.575 168.5,133.5 Z"/></g>
<g><path style="opacity:1" fill="#5e34fb" d="M 135.5,130.5 C 136.5,130.5 137.5,130.5 138.5,130.5C 138.5,131.5 138.5,132.5 138.5,133.5C 139.822,133.33 140.989,133.663 142,134.5C 142.236,136.764 142.736,138.931 143.5,141C 140.833,141.667 138.167,141.667 135.5,141C 136.717,137.534 136.717,134.034 135.5,130.5 Z"/></g>
<g><path style="opacity:1" fill="#fbfaf9" d="M 138.5,135.5 C 139.649,135.791 140.316,136.624 140.5,138C 140.167,138.833 139.833,139.667 139.5,140.5C 138.548,138.955 138.215,137.288 138.5,135.5 Z"/></g>
<g><path style="opacity:1" fill="#6c40f9" d="M 162.5,133.5 C 165.91,133.384 167.244,135.05 166.5,138.5C 161.318,138.557 161.318,139.224 166.5,140.5C 161.383,142.552 159.55,140.885 161,135.5C 161.717,134.956 162.217,134.289 162.5,133.5 Z"/></g>
<g><path style="opacity:1" fill="#4f23f8" d="M 183.5,132.5 C 186.776,133.234 187.442,135.067 185.5,138C 185.755,139.326 186.422,140.326 187.5,141C 186.216,141.684 185.049,141.517 184,140.5C 183.503,137.854 183.336,135.187 183.5,132.5 Z"/></g>
<g><path style="opacity:1" fill="#5b31fa" d="M 37.5,130.5 C 38.5,130.5 39.5,130.5 40.5,130.5C 40.5,131.5 40.5,132.5 40.5,133.5C 41.8221,133.33 42.9887,133.663 44,134.5C 44.2362,136.764 44.7362,138.931 45.5,141C 42.8333,141.667 40.1667,141.667 37.5,141C 38.7167,137.534 38.7167,134.034 37.5,130.5 Z"/></g>
<g><path style="opacity:1" fill="#f7f4fb" d="M 40.5,135.5 C 41.6491,135.791 42.3158,136.624 42.5,138C 42.1667,138.833 41.8333,139.667 41.5,140.5C 40.5481,138.955 40.2148,137.288 40.5,135.5 Z"/></g>
<g><path style="opacity:1" fill="#562af9" d="M 53.5,133.5 C 59.2109,133.525 64.7109,133.858 70,134.5C 70.2362,136.764 70.7362,138.931 71.5,141C 67.5,141.667 63.5,141.667 59.5,141C 60.4061,139.301 60.7394,137.467 60.5,135.5C 59.1667,135.5 57.8333,135.5 56.5,135.5C 56.2606,137.467 56.5939,139.301 57.5,141C 56.1667,141.667 54.8333,141.667 53.5,141C 54.6489,138.541 54.6489,136.041 53.5,133.5 Z"/></g>
<g><path style="opacity:1" fill="#f6f2fa" d="M 66.5,135.5 C 67.6491,135.791 68.3158,136.624 68.5,138C 68.1667,138.833 67.8333,139.667 67.5,140.5C 66.5481,138.955 66.2148,137.288 66.5,135.5 Z"/></g>
<g><path style="opacity:1" fill="#e4d9fc" d="M 61.5,135.5 C 62.5,135.5 63.5,135.5 64.5,135.5C 64.5,137.167 64.5,138.833 64.5,140.5C 63.5,140.5 62.5,140.5 61.5,140.5C 61.5,138.833 61.5,137.167 61.5,135.5 Z"/></g>
<g><path style="opacity:1" fill="#4c1df8" d="M 101.5,132.5 C 102.601,131.402 103.934,131.235 105.5,132C 104.663,133.011 104.33,134.178 104.5,135.5C 105.833,135.5 107.167,135.5 108.5,135.5C 108.67,134.178 108.337,133.011 107.5,132C 108.833,131.333 110.167,131.333 111.5,132C 110.167,135 110.167,138 111.5,141C 110.167,141.667 108.833,141.667 107.5,141C 108.337,139.989 108.67,138.822 108.5,137.5C 107.167,137.5 105.833,137.5 104.5,137.5C 104.33,138.822 104.663,139.989 105.5,141C 104.167,141.667 102.833,141.667 101.5,141C 102.817,138.063 102.817,135.23 101.5,132.5 Z"/></g>
<g><path style="opacity:1" fill="#663efb" d="M 131.5,132.5 C 132.643,132.908 133.643,133.575 134.5,134.5C 133.22,136.702 133.22,138.868 134.5,141C 133.552,141.483 132.552,141.649 131.5,141.5C 131.118,138.354 131.118,135.354 131.5,132.5 Z"/></g>
</svg>
